<svg width="158" height="36" viewBox="0 0 158 36" fill="none" xmlns="http://www.w3.org/2000/svg">
<path d="M105.406 27.8182V9.53182H113.19C114.458 9.53182 115.545 9.74455 116.451 10.17C117.357 10.5955 118.049 11.2091 118.527 12.0109C119.004 12.7964 119.243 13.7536 119.243 14.8827C119.243 15.6846 119.021 16.4536 118.576 17.19C118.131 17.91 117.398 18.5155 116.377 19.0064V17.1409C117.349 17.5173 118.098 17.9673 118.626 18.4909C119.153 19.0146 119.515 19.5873 119.713 20.2091C119.91 20.8146 120.009 21.4527 120.009 22.1236C120.009 23.9236 119.408 25.3227 118.205 26.3209C117.003 27.3191 115.331 27.8182 113.19 27.8182H105.406ZM109.236 24.5046H113.634C114.409 24.5046 115.026 24.2836 115.488 23.8418C115.949 23.4 116.179 22.8273 116.179 22.1236C116.179 21.4036 115.949 20.8227 115.488 20.3809C115.026 19.9391 114.409 19.7182 113.634 19.7182H109.236V24.5046ZM109.236 16.4046H113.461C114.054 16.4046 114.524 16.2409 114.87 15.9136C115.232 15.57 115.413 15.12 115.413 14.5636C115.413 14.0073 115.232 13.5655 114.87 13.2382C114.524 12.8946 114.054 12.7227 113.461 12.7227H109.236V16.4046Z" fill="#141624"/>
<path d="M122.194 27.8182V9.23728H125.9V27.8182H122.194Z" fill="#141624"/>
<path d="M135.309 28.1127C133.974 28.1127 132.755 27.81 131.652 27.2046C130.565 26.5991 129.692 25.7727 129.033 24.7255C128.39 23.6618 128.069 22.4591 128.069 21.1173C128.069 19.7591 128.39 18.5564 129.033 17.5091C129.692 16.4618 130.565 15.6355 131.652 15.03C132.755 14.4246 133.974 14.1218 135.309 14.1218C136.643 14.1218 137.854 14.4246 138.941 15.03C140.028 15.6355 140.893 16.4618 141.535 17.5091C142.194 18.5564 142.523 19.7591 142.523 21.1173C142.523 22.4591 142.194 23.6618 141.535 24.7255C140.893 25.7727 140.028 26.5991 138.941 27.2046C137.854 27.81 136.643 28.1127 135.309 28.1127ZM135.309 24.7991C135.984 24.7991 136.569 24.6436 137.063 24.3327C137.574 24.0218 137.969 23.5882 138.249 23.0318C138.545 22.4755 138.694 21.8373 138.694 21.1173C138.694 20.3973 138.545 19.7673 138.249 19.2273C137.969 18.6709 137.574 18.2373 137.063 17.9264C136.569 17.5991 135.984 17.4355 135.309 17.4355C134.633 17.4355 134.04 17.5991 133.53 17.9264C133.019 18.2373 132.615 18.6709 132.319 19.2273C132.039 19.7673 131.899 20.3973 131.899 21.1173C131.899 21.8373 132.039 22.4755 132.319 23.0318C132.615 23.5882 133.019 24.0218 133.53 24.3327C134.04 24.6436 134.633 24.7991 135.309 24.7991Z" fill="#141624"/>
<path d="M151.329 33.2182C150.291 33.2182 149.327 33.0464 148.438 32.7027C147.548 32.3591 146.782 31.8764 146.14 31.2546C145.514 30.6491 145.061 29.9291 144.781 29.0946L148.216 27.8918C148.397 28.5136 148.767 29.0046 149.327 29.3646C149.887 29.7246 150.555 29.9046 151.329 29.9046C151.938 29.9046 152.465 29.79 152.91 29.5609C153.355 29.3482 153.693 29.0291 153.923 28.6036C154.17 28.1782 154.294 27.6791 154.294 27.1064V24.0382L155.01 24.9218C154.549 25.6746 153.956 26.2391 153.231 26.6155C152.507 26.9755 151.658 27.1555 150.686 27.1555C149.434 27.1555 148.314 26.8773 147.326 26.3209C146.338 25.7482 145.563 24.9709 145.003 23.9891C144.443 22.9909 144.163 21.8618 144.163 20.6018C144.163 19.3418 144.443 18.2291 145.003 17.2636C145.563 16.2818 146.329 15.5127 147.301 14.9564C148.273 14.4 149.377 14.1218 150.612 14.1218C151.584 14.1218 152.432 14.3182 153.157 14.7109C153.882 15.0873 154.5 15.6682 155.01 16.4536L154.541 17.3373V14.4164H158V27.1064C158 28.2846 157.712 29.3318 157.135 30.2482C156.559 31.1809 155.768 31.9091 154.763 32.4327C153.775 32.9564 152.63 33.2182 151.329 33.2182ZM151.205 23.8173C151.831 23.8173 152.375 23.6864 152.836 23.4246C153.297 23.1627 153.651 22.7946 153.898 22.32C154.162 21.8455 154.294 21.2891 154.294 20.6509C154.294 20.0127 154.162 19.4564 153.898 18.9818C153.635 18.4909 153.273 18.1146 152.811 17.8527C152.35 17.5746 151.815 17.4355 151.205 17.4355C150.579 17.4355 150.019 17.5746 149.525 17.8527C149.047 18.1146 148.668 18.4909 148.388 18.9818C148.125 19.4564 147.993 20.0127 147.993 20.6509C147.993 21.2727 148.125 21.8209 148.388 22.2955C148.668 22.77 149.047 23.1464 149.525 23.4246C150.019 23.6864 150.579 23.8173 151.205 23.8173Z" fill="#141624"/>
<path d="M18 36C27.9411 36 36 27.9411 36 18C36 8.05888 27.9411 0 18 0C8.05888 0 0 8.05888 0 18C0 22.152 1.40577 25.9756 3.76732 29.021L7.73554 14.0299C9.38672 7.52344 13.6758 4.15725 20.5616 4.15725H22.936C27.7785 4.15725 31.335 8.70307 30.1698 13.4033C29.9609 14.2463 29.5702 15.0334 29.0253 15.7097L27.0045 18.2174C26.486 18.8609 26.2968 19.7092 26.493 20.5121L27.109 23.0338C27.4278 24.339 27.3695 25.708 26.941 26.9814C25.4832 31.3132 21.4227 34.231 16.8521 34.231H10.2086C12.5662 35.3648 15.2089 36 18 36Z" fill="#141624"/>
<path fill-rule="evenodd" clip-rule="evenodd" d="M17.7 21.7592H14.1932C13.0747 21.7592 12.0968 22.5135 11.8129 23.5953L10.4373 28.8354H15.871C17.8811 28.8354 19.6384 27.4799 20.1487 25.5357L20.2666 25.0865C20.7082 23.4043 19.4392 21.7592 17.7 21.7592ZM16.6646 23.3514H14.759C14.1206 23.3514 13.5623 23.7814 13.3993 24.3988L12.6486 27.2432H15.6532C16.7647 27.2432 17.7364 26.4977 18.0186 25.4284L18.0838 25.1814C18.328 24.2562 17.6263 23.3514 16.6646 23.3514Z" fill="#141624"/>
<path fill-rule="evenodd" clip-rule="evenodd" d="M14.9971 11.7427C15.2811 10.6609 16.2589 9.90663 17.3774 9.90663H20.8843C22.6235 9.90663 23.8925 11.5517 23.4509 13.2339L23.333 13.6831C22.8227 15.6273 21.0654 16.9828 19.0553 16.9828H13.6216L14.9971 11.7427ZM16.5836 12.5462C16.7465 11.9289 17.3049 11.4988 17.9433 11.4988H19.8489C20.8106 11.4988 21.5123 12.4036 21.2681 13.3288L21.2029 13.5758C20.9207 14.6451 19.949 15.3907 18.8375 15.3907H15.8329L16.5836 12.5462Z" fill="#141624"/>
<path d="M49.5664 10.7148C48.7852 10.7148 48.1423 10.7555 47.6377 10.8369C47.1494 10.9183 46.7425 11.0892 46.417 11.3496C46.1077 11.61 45.8555 11.9762 45.6602 12.4482C45.4811 12.904 45.3102 13.5143 45.1475 14.2793H44.4639L44.6348 9.54297H60.3574L60.5283 14.2793H59.8447C59.682 13.5143 59.5029 12.904 59.3076 12.4482C59.1286 11.9762 58.8844 11.61 58.5752 11.3496C58.266 11.0892 57.859 10.9183 57.3545 10.8369C56.8499 10.7555 56.1989 10.7148 55.4014 10.7148H53.9121V24.9971C53.9121 25.5016 53.9447 25.9085 54.0098 26.2178C54.0749 26.527 54.1969 26.7712 54.376 26.9502C54.5713 27.1292 54.8398 27.2594 55.1816 27.3408C55.5397 27.4059 56.0036 27.4548 56.5732 27.4873V28H48.4678V27.4873C49.0374 27.4548 49.4932 27.4059 49.835 27.3408C50.1768 27.2594 50.4372 27.1211 50.6162 26.9258C50.8115 26.7142 50.9336 26.4294 50.9824 26.0713C51.0475 25.7132 51.0801 25.2412 51.0801 24.6553V10.7148H49.5664ZM72.833 23.6299C72.2471 25.1598 71.4495 26.3154 70.4404 27.0967C69.4476 27.8779 68.2757 28.2686 66.9248 28.2686C66.1273 28.2686 65.403 28.1221 64.752 27.8291C64.1172 27.5361 63.5719 27.1211 63.1162 26.584C62.6605 26.0469 62.3105 25.3958 62.0664 24.6309C61.8223 23.8659 61.7002 23.0033 61.7002 22.043C61.7002 21.0176 61.8385 20.0817 62.1152 19.2354C62.4082 18.389 62.807 17.6647 63.3115 17.0625C63.8324 16.444 64.4508 15.9639 65.167 15.6221C65.8831 15.2803 66.6725 15.1094 67.5352 15.1094C68.2676 15.1094 68.9349 15.2477 69.5371 15.5244C70.1556 15.8011 70.6764 16.1917 71.0996 16.6963C71.2786 16.9242 71.4251 17.152 71.5391 17.3799C71.6693 17.6077 71.7751 17.86 71.8564 18.1367C71.9541 18.4134 72.0355 18.7227 72.1006 19.0645C72.1657 19.4062 72.2308 19.7969 72.2959 20.2363H63.7266C63.7591 21.1315 63.8324 21.8721 63.9463 22.458C64.0765 23.0277 64.2799 23.5811 64.5566 24.1182C65.3542 25.6156 66.526 26.3643 68.0723 26.3643C68.9674 26.3643 69.7406 26.1445 70.3916 25.7051C71.0589 25.2656 71.7262 24.5169 72.3936 23.459L72.833 23.6299ZM69.4639 19.3086C69.2848 18.1042 68.9919 17.2741 68.585 16.8184C68.1943 16.3464 67.5758 16.1104 66.7295 16.1104C65.8669 16.1104 65.1914 16.3626 64.7031 16.8672C64.2311 17.3717 63.9219 18.1855 63.7754 19.3086H69.4639ZM84.8691 23.8984C84.6413 24.3379 84.4297 24.7204 84.2344 25.0459C84.0553 25.3551 83.8763 25.64 83.6973 25.9004C83.5345 26.1445 83.3636 26.3643 83.1846 26.5596C83.0055 26.7549 82.8102 26.9339 82.5986 27.0967C81.6221 27.8779 80.5397 28.2686 79.3516 28.2686C78.5866 28.2686 77.8786 28.1221 77.2275 27.8291C76.5765 27.5199 76.015 27.0885 75.543 26.5352C75.0872 25.9818 74.7292 25.3307 74.4688 24.582C74.2083 23.8333 74.0781 23.0033 74.0781 22.0918C74.0781 20.9362 74.2734 19.8783 74.6641 18.918C75.071 17.9414 75.6488 17.1439 76.3975 16.5254C76.9671 16.0534 77.5693 15.7035 78.2041 15.4756C78.8551 15.2314 79.5143 15.1094 80.1816 15.1094C80.7676 15.1094 81.321 15.1908 81.8418 15.3535C82.3626 15.5 82.8184 15.7035 83.209 15.9639C83.5996 16.2243 83.9089 16.5335 84.1367 16.8916C84.3646 17.2334 84.4785 17.5996 84.4785 17.9902C84.4785 18.3158 84.3483 18.6006 84.0879 18.8447C83.8438 19.0889 83.5426 19.2109 83.1846 19.2109C82.859 19.2109 82.5824 19.0889 82.3545 18.8447C82.1266 18.6006 81.9557 18.2751 81.8418 17.8682L81.6709 17.2578C81.5407 16.737 81.3535 16.387 81.1094 16.208C80.8815 16.029 80.5153 15.9395 80.0107 15.9395C79.4411 15.9395 78.9202 16.0615 78.4482 16.3057C77.9925 16.5335 77.6019 16.8672 77.2764 17.3066C76.9508 17.7461 76.6904 18.2669 76.4951 18.8691C76.3161 19.4714 76.2266 20.1387 76.2266 20.8711C76.2266 21.6523 76.3324 22.3766 76.5439 23.0439C76.7555 23.7113 77.0485 24.2809 77.4229 24.7529C77.7972 25.2249 78.2448 25.5993 78.7656 25.876C79.3027 26.1364 79.8887 26.2666 80.5234 26.2666C81.321 26.2666 82.0127 26.0794 82.5986 25.7051C83.1846 25.3145 83.8112 24.6309 84.4785 23.6543L84.8691 23.8984ZM90.1426 25.168C90.1426 25.64 90.167 26.0306 90.2158 26.3398C90.2646 26.6328 90.3542 26.8688 90.4844 27.0479C90.6146 27.2106 90.8018 27.3327 91.0459 27.4141C91.3063 27.4954 91.64 27.5605 92.0469 27.6094V28H86.0166V27.6094C86.4235 27.5443 86.7409 27.471 86.9688 27.3896C87.2129 27.3083 87.3919 27.1862 87.5059 27.0234C87.6361 26.8444 87.7174 26.6165 87.75 26.3398C87.7826 26.0469 87.7988 25.6562 87.7988 25.168V12.0332C87.7988 11.7402 87.7826 11.5042 87.75 11.3252C87.7174 11.1299 87.6442 10.9834 87.5303 10.8857C87.4326 10.7718 87.2861 10.6986 87.0908 10.666C86.9118 10.6335 86.6758 10.6172 86.3828 10.6172C86.2201 10.6172 86.1061 10.6253 86.041 10.6416V10.1777L86.7979 9.98242C87.1885 9.85221 87.5303 9.74642 87.8232 9.66504C88.1162 9.56738 88.3848 9.486 88.6289 9.4209C88.873 9.33952 89.1009 9.26628 89.3125 9.20117C89.5241 9.11979 89.752 9.03841 89.9961 8.95703L90.1426 9.05469V17.5508C90.7936 16.6882 91.4284 16.0778 92.0469 15.7197C92.6816 15.3617 93.4059 15.1826 94.2197 15.1826C95.3916 15.1826 96.2542 15.557 96.8076 16.3057C97.361 17.0544 97.6377 18.1611 97.6377 19.626V25.168C97.6377 25.64 97.654 26.0225 97.6865 26.3154C97.7191 26.5921 97.7923 26.82 97.9062 26.999C98.0365 27.1618 98.2155 27.292 98.4434 27.3896C98.6712 27.471 98.9723 27.5443 99.3467 27.6094V28H93.4385V27.6094C93.8454 27.5605 94.1709 27.4954 94.415 27.4141C94.6592 27.3327 94.8464 27.2106 94.9766 27.0479C95.123 26.8688 95.2126 26.6328 95.2451 26.3398C95.2939 26.0306 95.3184 25.64 95.3184 25.168V19.6748C95.3184 17.7054 94.6348 16.7207 93.2676 16.7207C92.6979 16.7207 92.1771 16.8509 91.7051 17.1113C91.2493 17.3555 90.7285 17.8031 90.1426 18.4541V25.168Z" fill="black"/>
</svg>
